<svg xmlns="http://www.w3.org/2000/svg" version="1.1" xmlns:xlink="http://www.w3.org/1999/xlink" xmlns:svgjs="http://svgjs.dev/svgjs" width="100%" height="100%" viewBox="0 0 1000 600"><rect width="1000" height="600" x="0" y="0" fill="white"/><g><rect width="333.3333333333333" height="333.3333333333333" rx="13.333333333333334" ry="13.333333333333334" y="381.7956652216514" fill="#f43f5e" transform="matrix(0.34763416392851954,0,0,0.3476341639285196,0,109.33576492689201)" x="359.5733947753906"/><path d="M505.3933380401319 621.418804766628L441.84556406566287 621.418804766628L441.84556406566287 612.8473765664094L446.5570113545248 612.8473765664094Q451.0414009427186 612.8473765664094 454.8162352163249 611.9107635511537Q458.5910694899311 611.0025327484814 460.9467931343621 608.0224004272134Q463.30251677879306 605.0706503185288 463.30251677879306 599.138767888576L463.30251677879306 599.138767888576L463.30251677879306 485.72344640488774L443.6904078835907 485.72344640488774Q434.6932464946194 485.72344640488774 431.2306165594317 490.7470980321682Q427.73960441166054 495.7423674468652 426.91652024673886 502.4973340417395L426.91652024673886 502.4973340417395L425.8947605937327 511.26743773004273L415.27981308750157 511.26743773004273L416.3015727405078 475.50584987482574L531.3630625540395 475.50584987482574L532.3848222070458 511.26743773004273L521.7414924882311 511.26743773004273L520.7197328352249 502.4973340417395Q519.8966486703032 495.7423674468652 516.4340187351155 490.7470980321682Q512.9713887999278 485.72344640488774 503.77555192287207 485.72344640488774L503.77555192287207 485.72344640488774L483.93638532700163 485.72344640488774L483.93638532700163 598.11700823557Q483.93638532700163 604.4462416416916 486.17858012109855 607.6250494510443Q488.449157127779 610.8038572603969 492.30913803913575 611.8256169134031Q496.197501163076 612.8473765664094 500.7102729638534 612.8473765664094L500.7102729638534 612.8473765664094L505.3933380401319 612.8473765664094L505.3933380401319 621.418804766628ZM586.9354347925434 623.4623240726403L586.9354347925434 623.4623240726403Q576.916513750566 623.4623240726403 569.2533163530195 621.418804766628Q561.5901189554729 619.3752854606155 556.4813206904419 615.4869223366752Q551.3725224254109 611.5985592127352 548.8181232928954 606.2910854596196Q546.26372416038 600.983611706504 546.26372416038 594.6543783003822L546.26372416038 594.6543783003822Q546.26372416038 590.5673396883574 547.9950391279738 587.5020607293388Q549.7547363081511 584.4367817703203 553.0186907552543 582.7054668027263Q556.2826452023573 580.945769622549 560.9940924912194 580.945769622549L560.9940924912194 580.945769622549Q561.3914434673884 589.3469045472666 564.2580469383224 596.7830442441452Q567.1246504092566 604.2475661536071 573.0281506266257 608.8454845921351Q578.9600330565784 613.4434030306629 588.5816031223868 613.4434030306629L588.5816031223868 613.4434030306629Q602.2618295876364 613.4434030306629 610.038555835517 606.8019652861226Q617.7868998708141 600.1605275415823 617.7868998708141 587.7007362174234L617.7868998708141 587.7007362174234Q617.7868998708141 580.1510676702108 614.8351497621295 574.928740554846Q611.8550174408614 569.7064134394807 605.0149042082365 565.2220238512868Q598.1747909756116 560.737634263093 586.1123506276218 555.8275114861465L586.1123506276218 555.8275114861465Q573.4538838153783 550.5200377330309 565.0811311032442 544.3894798149938Q556.6799961785265 538.2589218969565 552.5929575665017 529.9713158225729Q548.5059189544769 521.6837097481894 548.5059189544769 510.4443535651211L548.5059189544769 510.4443535651211Q548.5059189544769 498.80764640588376 554.352654746679 490.5200403315002Q560.1710083262976 482.26081646970005 570.2750760060256 477.86157351925664Q580.4075258983371 473.4623305688133 593.2646681986653 473.4623305688133L593.2646681986653 473.4623305688133Q605.5257840347396 473.4623305688133 614.0120655972078 476.72628501591646Q622.498347159676 480.01862167560313 626.9827367478699 485.2125665783846Q631.4955085486472 490.43489369374964 631.4955085486472 496.3667761237023L631.4955085486472 496.3667761237023Q631.4955085486472 502.8946850179086 627.0962655982039 506.27216831534577Q622.6970226477605 509.6496516127829 615.3460295886325 509.6496516127829L615.3460295886325 509.6496516127829Q615.3460295886325 503.2920359940777 613.1889814322861 497.3885357767085Q611.0603154885232 491.45665334675584 606.0366638612427 487.5682902228156Q601.0413944465457 483.67992709887534 592.4415840337435 483.67992709887534L592.4415840337435 483.67992709887534Q580.6062013864216 483.67992709887534 574.0499102796318 490.00916050499706Q567.5220013854256 496.3667761237023 567.5220013854256 506.9817236299334L567.5220013854256 506.9817236299334Q567.5220013854256 515.155800853983 570.4737514941102 520.7754789455171Q573.4538838153783 526.3951570370513 580.4075258983371 530.7943999874947Q587.3327857687125 535.193642937938 599.1965506286178 540.075383502301L599.1965506286178 540.075383502301Q611.2589909766077 544.9855062792474 619.7452725390759 550.803859858866Q628.2031718889605 556.6505956510682 632.715943689738 564.2002641982807Q637.2003332779318 571.7499327454932 637.2003332779318 582.3932624643078L637.2003332779318 582.3932624643078Q637.2003332779318 595.4774624653039 631.0697753598947 604.5597704920256Q624.9392174418574 613.6420785187474 613.6147146210387 618.552201295694Q602.2618295876364 623.4623240726403 586.9354347925434 623.4623240726403Z " fill="white" transform="matrix(0.34763416392851954,0,0,0.3476341639285196,0,109.33576492689201)"/><path d="M862.1437474497227 621.5142723722322L801.5647457884304 621.5142723722322L801.5647457884304 613.3432770610618L806.0560875819875 613.3432770610618Q810.3309791686263 613.3432770610618 813.929463858645 612.4504199575233Q817.5279485486637 611.5846191298497 819.7736194454424 608.7437101640455Q822.0192903422209 605.929857474106 822.0192903422209 600.2750958183624L822.0192903422209 600.2750958183624L822.0192903422209 492.15821746261236L803.3234037196426 492.15821746261236Q794.7465642705001 492.15821746261236 791.4456986149943 496.9471782906824Q788.1177766836236 501.70908284288754 787.3331446835443 508.1484764987105L787.3331446835443 508.1484764987105L786.3591187524114 516.5088657409344L776.2400715789754 516.5088657409344L777.2140975101083 482.4179581512836L886.9002398660168 482.4179581512836L887.8742657971496 516.5088657409344L877.7281623478489 516.5088657409344L876.7541364167159 508.1484764987105Q875.9695044166366 501.70908284288754 872.6686387611308 496.9471782906824Q869.3677731056249 492.15821746261236 860.6015397254289 492.15821746261236L860.6015397254289 492.15821746261236L841.6892028959321 492.15821746261236L841.6892028959321 599.3010698872295Q841.6892028959321 605.3346194050803 843.8266486892516 608.3649223019381Q845.9911507584357 611.395225198796 849.6708042760488 612.3692511299289Q853.3775140695268 613.3432770610618 857.6794619320303 613.3432770610618L857.6794619320303 613.3432770610618L862.1437474497227 613.3432770610618L862.1437474497227 621.5142723722322ZM954.4868169762929 621.5142723722322L898.1827069016393 621.5142723722322L898.1827069016393 613.3432770610618L898.777944970665 613.3432770610618Q903.2422304883573 613.3432770610618 906.8677714542409 612.3692511299289Q910.4662561442595 611.395225198796 912.603701937579 608.3649223019381Q914.7411477308983 605.3346194050803 914.7411477308983 599.3010698872295L914.7411477308983 599.3010698872295L914.7411477308983 538.5326742948835Q914.7411477308983 532.6885187080861 912.4954768341197 529.847609742282Q910.276862213206 527.0337570523425 906.6513212473225 526.1679562246688Q903.0528365573037 525.2750991211303 898.777944970665 525.2750991211303L898.777944970665 525.2750991211303L898.1827069016393 525.2750991211303L898.1827069016393 517.1041038099601L928.1881168357052 517.1041038099601L931.894826629183 536.3952285015641L932.8688525603159 536.3952285015641Q935.3850862157425 530.5510729147668 938.3071640091412 525.6809432591024Q941.2292418025397 520.810813603438 946.0993714582041 517.9699046376338Q950.9695011138685 515.1560519476943 959.546340563011 515.1560519476943L959.546340563011 515.1560519476943Q970.2606258054727 515.1560519476943 975.4283744956499 518.8627617411722Q980.5961231858271 522.5424152587854 980.5961231858271 529.3605967767155L980.5961231858271 529.3605967767155Q980.5961231858271 535.4212025704312 976.4024004267827 539.3173062949627Q972.2086776677384 543.2134100194943 962.4684183564095 543.2134100194943L962.4684183564095 543.2134100194943Q962.4684183564095 537.7480422948042 961.4943924252767 534.4471766392983Q960.5203664941438 531.1192547079277 958.2746955973653 529.5770469836339Q956.0560809764514 528.0077829834754 952.1599772519198 528.0077829834754L952.1599772519198 528.0077829834754Q946.6946095272299 528.0077829834754 942.9878997337519 532.2826745701142Q939.281189940274 536.5846224326177 937.1437441469546 543.2134100194943Q935.0062983536352 549.8151413305061 934.0322724225024 556.9309418829491Q933.0582464913695 564.0467424353922 933.0582464913695 569.7015040911358L933.0582464913695 569.7015040911358L933.0582464913695 600.2750958183624Q933.0582464913695 605.929857474106 935.3039173881481 608.7437101640455Q937.5495882849267 611.5846191298497 941.1480729749453 612.4504199575233Q944.746557664964 613.3432770610618 949.0214492516028 613.3432770610618L949.0214492516028 613.3432770610618L954.4868169762929 613.3432770610618L954.4868169762929 621.5142723722322ZM1043.312570640439 621.5142723722322L987.9824864969181 621.5142723722322L987.9824864969181 613.3432770610618L990.5257764282096 613.3432770610618Q994.8006680148483 613.3432770610618 998.4262089807319 612.4504199575233Q1002.0246936707505 611.5846191298497 1004.2703645675291 608.7437101640455Q1006.488979188443 605.929857474106 1006.488979188443 600.2750958183624L1006.488979188443 600.2750958183624L1006.488979188443 538.5326742948835Q1006.488979188443 532.6885187080861 1004.2703645675291 529.847609742282Q1002.0246936707505 527.0337570523425 998.4262089807319 526.1679562246688Q994.8006680148483 525.2750991211303 990.5257764282096 525.2750991211303L990.5257764282096 525.2750991211303L989.9305383591839 525.2750991211303L989.9305383591839 517.1041038099601L1024.8060779489142 517.1041038099601L1024.8060779489142 599.3010698872295Q1024.8060779489142 605.3346194050803 1026.9435237422335 608.3649223019381Q1029.1080258114175 611.395225198796 1032.7876793290307 612.3692511299289Q1036.4943891225087 613.3432770610618 1040.7963369850122 613.3432770610618L1040.7963369850122 613.3432770610618L1043.312570640439 613.3432770610618L1043.312570640439 621.5142723722322ZM1014.8764247065317 497.62358518730247L1014.8764247065317 497.62358518730247Q1010.1956889819209 497.62358518730247 1006.9759921540093 494.8909013249574Q1003.7833516019627 492.15821746261236 1003.7833516019627 485.52942987573584L1003.7833516019627 485.52942987573584Q1003.7833516019627 478.71124835780563 1006.9759921540093 476.0867895989198Q1010.1956889819209 473.462330840034 1014.8764247065317 473.462330840034L1014.8764247065317 473.462330840034Q1019.3677665000888 473.462330840034 1022.6686321555947 476.0867895989198Q1025.9694978111006 478.71124835780563 1025.9694978111006 485.52942987573584L1025.9694978111006 485.52942987573584Q1025.9694978111006 492.15821746261236 1022.6686321555947 494.8909013249574Q1019.3677665000888 497.62358518730247 1014.8764247065317 497.62358518730247ZM1103.7021783706775 621.5142723722322L1048.3720942271568 621.5142723722322L1048.3720942271568 613.3432770610618L1050.9153841584482 613.3432770610618Q1055.4067259520054 613.3432770610618 1059.0052106420242 612.3692511299289Q1062.603695332043 611.395225198796 1064.7411411253622 608.3649223019381Q1066.8785869186815 605.3346194050803 1066.8785869186815 599.3010698872295L1066.8785869186815 599.3010698872295L1066.8785869186815 494.8909013249574Q1066.8785869186815 489.0467457381601 1064.6599722977678 486.23289304822066Q1062.4143014009892 483.3919840824164 1058.8158167109705 482.52618325474276Q1055.190275745087 481.63332615120424 1050.9153841584482 481.63332615120424L1050.9153841584482 481.63332615120424L1048.3720942271568 481.63332615120424L1048.3720942271568 473.462330840034L1085.1956856791528 473.462330840034L1085.1956856791528 599.3010698872295Q1085.1956856791528 605.3346194050803 1087.3331314724721 608.3649223019381Q1089.4976335416563 611.395225198796 1093.1772870592695 612.3692511299289Q1096.8839968527473 613.3432770610618 1101.185944715251 613.3432770610618L1101.185944715251 613.3432770610618L1103.7021783706775 613.3432770610618L1103.7021783706775 621.5142723722322ZM1164.0917861009161 621.5142723722322L1108.7617019573956 621.5142723722322L1108.7617019573956 613.3432770610618L1111.304991888687 613.3432770610618Q1115.796333682244 613.3432770610618 1119.3948183722628 612.3692511299289Q1122.9933030622815 611.395225198796 1125.1307488556008 608.3649223019381Q1127.2681946489204 605.3346194050803 1127.2681946489204 599.3010698872295L1127.2681946489204 599.3010698872295L1127.2681946489204 494.8909013249574Q1127.2681946489204 489.0467457381601 1125.0495800280066 486.23289304822066Q1122.803909131228 483.3919840824164 1119.2054244412093 482.52618325474276Q1115.5798834753257 481.63332615120424 1111.304991888687 481.63332615120424L1111.304991888687 481.63332615120424L1108.7617019573956 481.63332615120424L1108.7617019573956 473.462330840034L1145.5852934093914 473.462330840034L1145.5852934093914 599.3010698872295Q1145.5852934093914 605.3346194050803 1147.722739202711 608.3649223019381Q1149.8872412718952 611.395225198796 1153.5668947895083 612.3692511299289Q1157.273604582986 613.3432770610618 1161.5755524454896 613.3432770610618L1161.5755524454896 613.3432770610618L1164.0917861009161 613.3432770610618L1164.0917861009161 621.5142723722322ZM1226.4294456934208 621.5142723722322L1171.0993615499 621.5142723722322L1171.0993615499 613.3432770610618L1173.6426514811915 613.3432770610618Q1177.9175430678301 613.3432770610618 1181.5430840337137 612.4504199575233Q1185.1415687237325 611.5846191298497 1187.387239620511 608.7437101640455Q1189.6058542414248 605.929857474106 1189.6058542414248 600.2750958183624L1189.6058542414248 600.2750958183624L1189.6058542414248 538.5326742948835Q1189.6058542414248 532.6885187080861 1187.387239620511 529.847609742282Q1185.1415687237325 527.0337570523425 1181.5430840337137 526.1679562246688Q1177.9175430678301 525.2750991211303 1173.6426514811915 525.2750991211303L1173.6426514811915 525.2750991211303L1173.0474134121657 525.2750991211303L1173.0474134121657 517.1041038099601L1207.922953001896 517.1041038099601L1207.922953001896 599.3010698872295Q1207.922953001896 605.3346194050803 1210.0603987952154 608.3649223019381Q1212.2249008643994 611.395225198796 1215.9045543820125 612.3692511299289Q1219.6112641754905 613.3432770610618 1223.913212037994 613.3432770610618L1223.913212037994 613.3432770610618L1226.4294456934208 613.3432770610618L1226.4294456934208 621.5142723722322ZM1197.9932997595135 497.62358518730247L1197.9932997595135 497.62358518730247Q1193.3125640349026 497.62358518730247 1190.0928672069913 494.8909013249574Q1186.9002266549446 492.15821746261236 1186.9002266549446 485.52942987573584L1186.9002266549446 485.52942987573584Q1186.9002266549446 478.71124835780563 1190.0928672069913 476.0867895989198Q1193.3125640349026 473.462330840034 1197.9932997595135 473.462330840034L1197.9932997595135 473.462330840034Q1202.4846415530706 473.462330840034 1205.7855072085765 476.0867895989198Q1209.0863728640825 478.71124835780563 1209.0863728640825 485.52942987573584L1209.0863728640825 485.52942987573584Q1209.0863728640825 492.15821746261236 1205.7855072085765 494.8909013249574Q1202.4846415530706 497.62358518730247 1197.9932997595135 497.62358518730247ZM1282.1383176990487 623.4623242344978L1282.1383176990487 623.4623242344978Q1266.770353007841 623.4623242344978 1258.3829074897521 614.3984718197892Q1249.9954619716634 605.3346194050803 1249.9954619716634 585.285918989262L1249.9954619716634 585.285918989262L1249.9954619716634 538.5326742948835Q1249.9954619716634 532.6885187080861 1247.7768473507497 529.847609742282Q1245.531176453971 527.0337570523425 1241.9326917639523 526.1679562246688Q1238.307150798069 525.2750991211303 1234.0322592114303 525.2750991211303L1234.0322592114303 525.2750991211303L1233.4370211424045 525.2750991211303L1233.4370211424045 517.1041038099601L1268.3125607321347 517.1041038099601L1268.3125607321347 584.311893058129Q1268.3125607321347 592.6722823003529 1270.1794437668061 598.7328880940686Q1272.0192705256127 604.7664376119196 1276.5106123191697 607.8779093363719Q1280.974897836862 610.9893810608241 1288.7671052859253 610.9893810608241L1288.7671052859253 610.9893810608241Q1297.3439447350675 610.9893810608241 1302.8093124597576 607.012108508698Q1308.247623908583 603.0077796807072 1310.7909138398743 595.8919791282644Q1313.3071474953008 588.7761785758214 1313.3071474953008 579.4417634024646L1313.3071474953008 579.4417634024646L1313.3071474953008 539.3173062949627Q1313.3071474953008 533.0673065701935 1311.1697017019815 530.1452287767947Q1309.0322559086621 527.2231509833962 1305.4337712186434 526.2491250522633Q1301.8352865286247 525.2750991211303 1297.3439447350675 525.2750991211303L1297.3439447350675 525.2750991211303L1296.748706666042 525.2750991211303L1296.748706666042 517.1041038099601L1331.624246255772 517.1041038099601L1331.624246255772 600.2750958183624Q1331.624246255772 605.929857474106 1333.8699171525504 608.7437101640455Q1336.1155880493293 611.5846191298497 1339.714072739348 612.4504199575233Q1343.3125574293667 613.3432770610618 1347.6145052918703 613.3432770610618L1347.6145052918703 613.3432770610618L1348.182687085031 613.3432770610618L1348.182687085031 621.5142723722322L1317.2032512198325 621.5142723722322L1314.6870175644058 605.7404635430523L1313.7129916332728 605.7404635430523Q1307.679442115422 616.6441427165678 1299.6707844594407 620.0532334755328Q1291.6891830793238 623.4623242344978 1282.1383176990487 623.4623242344978ZM1410.5203466775354 621.5142723722322L1358.1123403274134 621.5142723722322L1358.1123403274134 613.3432770610618L1360.655630258705 613.3432770610618Q1365.146972052262 613.3432770610618 1368.447837707768 612.3692511299289Q1371.7487033632738 611.395225198796 1373.6967552255396 608.3649223019381Q1375.6448070878055 605.3346194050803 1375.6448070878055 599.3010698872295L1375.6448070878055 599.3010698872295L1375.6448070878055 538.5326742948835Q1375.6448070878055 532.6885187080861 1373.6967552255396 529.847609742282Q1371.7487033632738 527.0337570523425 1368.3396126043087 526.1679562246688Q1364.9305218453437 525.2750991211303 1360.655630258705 525.2750991211303L1360.655630258705 525.2750991211303L1360.060392189679 525.2750991211303L1360.060392189679 517.1041038099601L1390.6610401927708 517.1041038099601L1393.1772738481973 532.8779126391398L1394.15129977933 532.8779126391398Q1398.0474035038617 525.464493052184 1402.538745297419 521.6766144311116Q1407.0300870909762 517.8887358100394 1412.2790046087478 516.5088657409344Q1417.5279221265193 515.1560519476943 1423.588527920235 515.1560519476943L1423.588527920235 515.1560519476943Q1429.8114713691396 515.1560519476943 1435.3580079214241 516.9147098789065Q1440.9045444737085 518.6463115342538 1445.206492336212 522.461246431191Q1449.4813839228507 526.2491250522633 1451.8352799230886 532.8779126391398L1451.8352799230886 532.8779126391398L1453.3774876473824 532.8779126391398Q1457.2735913719139 525.464493052184 1462.0625521999839 521.6766144311116Q1466.824456752189 517.8887358100394 1472.3709933044736 516.5088657409344Q1477.917529856758 515.1560519476943 1483.9781356504739 515.1560519476943L1483.9781356504739 515.1560519476943Q1498.9673124795743 515.1560519476943 1507.354757997663 524.2199043624031Q1515.7151472398868 533.256700501247 1515.7151472398868 553.3324571929304L1515.7151472398868 553.3324571929304L1515.7151472398868 599.3010698872295Q1515.7151472398868 605.3346194050803 1517.6631991021525 608.3649223019381Q1519.6112509644183 611.395225198796 1523.0203417233836 612.3692511299289Q1526.4294324823484 613.3432770610618 1530.7313803448521 613.3432770610618L1530.7313803448521 613.3432770610618L1531.299562138013 613.3432770610618L1531.299562138013 621.5142723722322L1497.3980484794158 621.5142723722322L1497.3980484794158 554.3064831240632Q1497.3980484794158 541.6441460193357 1492.8255378582642 534.636570570352Q1488.2530272371125 527.6289951213682 1476.9435039256252 527.6289951213682L1476.9435039256252 527.6289951213682Q1468.9619025455086 527.6289951213682 1464.1999979933032 531.6062676734941Q1459.4110371652332 535.6105965014849 1457.3818164753732 542.2393840883615Q1455.3255395096483 548.8411153993732 1455.3255395096483 556.6333228484361L1455.3255395096483 556.6333228484361L1455.3255395096483 599.3010698872295Q1455.3255395096483 605.3346194050803 1457.2735913719139 608.3649223019381Q1459.2216432341795 611.395225198796 1462.6307339931448 612.3692511299289Q1466.0398247521098 613.3432770610618 1470.3417726146133 613.3432770610618L1470.3417726146133 613.3432770610618L1470.9099544077742 613.3432770610618L1470.9099544077742 621.5142723722322L1437.008440749177 621.5142723722322L1437.008440749177 554.3064831240632Q1437.008440749177 541.6441460193357 1432.4359301280253 534.636570570352Q1427.8634195068737 527.6289951213682 1416.5538961953864 527.6289951213682L1416.5538961953864 527.6289951213682Q1408.1935069531626 527.6289951213682 1403.2151521940389 532.0121118114662Q1398.26385371078 536.3952285015641 1396.0993516415958 543.5921978816016Q1393.9619058482765 550.789167261639 1393.9619058482765 559.1766127797276L1393.9619058482765 559.1766127797276L1393.9619058482765 600.2750958183624Q1393.9619058482765 605.929857474106 1396.2075767450551 608.7437101640455Q1398.4532476418337 611.5846191298497 1402.0517323318525 612.4504199575233Q1405.6502170218712 613.3432770610618 1409.9521648843747 613.3432770610618L1409.9521648843747 613.3432770610618L1410.5203466775354 613.3432770610618L1410.5203466775354 621.5142723722322ZM1584.8709883503213 623.4623242344978L1584.8709883503213 623.4623242344978Q1575.3201229700462 623.4623242344978 1568.0149284865495 621.5142723722322Q1560.709734003053 619.5662205099663 1555.8396043473886 615.8595107164883Q1550.9694746917241 612.1528009230105 1548.534409863892 607.0932773362924Q1546.09934503606 602.0337537495745 1546.09934503606 596.0002042317235L1546.09934503606 596.0002042317235Q1546.09934503606 592.104100507192 1547.7768341396775 589.1820227137935Q1549.4272669674303 586.2599449203947 1552.5387386918828 584.6095120926418Q1555.6502104163349 582.9320229890241 1560.141552209892 582.9320229890241L1560.141552209892 582.9320229890241Q1560.5203400719995 590.9406806450056 1563.2530239343444 598.0294249215838Q1565.9857077966894 605.1452254740268 1571.6404694524333 609.5283421641248Q1577.268174832312 613.9114588542227 1586.44025235048 613.9114588542227L1586.44025235048 613.9114588542227Q1599.4813773173148 613.9114588542227 1606.8947969042704 607.5802903018589Q1614.2811602153615 601.2491217494953 1614.2811602153615 589.3714166448469L1614.2811602153615 589.3714166448469Q1614.2811602153615 582.1744472648097 1611.467307525422 577.196092505686Q1608.6534548354828 572.2177377465623 1602.1058360762006 567.9428461599236Q1595.585273592783 563.6679545732848 1584.0863563502423 558.987218848674L1584.0863563502423 558.987218848674Q1572.0192573145403 553.9276952619559 1564.0376559344238 548.0835396751587Q1556.0560545543071 542.2393840883615 1552.1599508297757 534.3389515358392Q1548.263847105244 526.438518983317 1548.263847105244 515.7242337408552L1548.263847105244 515.7242337408552Q1548.263847105244 504.6311606362862 1553.8103836575285 496.73072808376395Q1559.3569202098129 488.85735180710645 1568.9889544176824 484.66362904806215Q1578.6480449014168 480.4699062890178 1590.9045378681724 480.4699062890178L1590.9045378681724 480.4699062890178Q1602.592849041767 480.4699062890178 1610.682675525343 483.58137801347004Q1618.7725020089188 486.7199060137871 1623.0473935955577 491.67120449704595Q1627.349341458061 496.64955925616954 1627.349341458061 502.3043209119132L1627.349341458061 502.3043209119132Q1627.349341458061 508.52726436081775 1623.1556186990167 511.74696118872924Q1618.9618959399725 514.9666580166406 1611.9543204909885 514.9666580166406L1611.9543204909885 514.9666580166406Q1611.9543204909885 508.906052222925 1609.8980435252636 503.2783468430461Q1607.8688228354033 497.62358518730247 1603.0798620073335 493.9168753938245Q1598.3179574551282 490.2101656003466 1590.146962143958 490.2101656003466L1590.146962143958 490.2101656003466Q1578.8374388324705 490.2101656003466 1572.614495383566 496.2437151181975Q1566.3644956587966 502.3043209119132 1566.3644956587966 512.4233680853492L1566.3644956587966 512.4233680853492Q1566.3644956587966 520.2155755344124 1569.205404624601 525.5727181556432Q1572.0192573145403 530.9298607768741 1578.6480449014168 535.1235835359184Q1585.2768324882934 539.3173062949627 1596.559299523916 543.9709857437088L1596.559299523916 543.9709857437088Q1608.0582167664572 548.6517214683195 1616.148043250033 554.198258020604Q1624.2378697336087 559.7718508487533 1628.5127613202478 566.9688202287907Q1632.7876529068865 574.1657896088282 1632.7876529068865 584.311893058129L1632.7876529068865 584.311893058129Q1632.7876529068865 596.784836231803 1626.9434973200891 605.4428445085396Q1621.0993417332918 614.1008527852764 1610.3038876632356 618.7815885098871Q1599.4813773173148 623.4623242344978 1584.8709883503213 623.4623242344978ZM1700.5906802240809 621.5142723722322L1648.182673873959 621.5142723722322L1648.182673873959 613.3432770610618L1650.7259638052503 613.3432770610618Q1655.1902493229427 613.3432770610618 1658.5181712543133 612.3692511299289Q1661.819036909819 611.395225198796 1663.767088772085 608.3649223019381Q1665.7151406343507 605.3346194050803 1665.7151406343507 599.3010698872295L1665.7151406343507 599.3010698872295L1665.7151406343507 538.5326742948835Q1665.7151406343507 532.6885187080861 1663.767088772085 529.847609742282Q1661.819036909819 527.0337570523425 1658.409946150854 526.1679562246688Q1655.000855391889 525.2750991211303 1650.7259638052503 525.2750991211303L1650.7259638052503 525.2750991211303L1650.1307257362248 525.2750991211303L1650.1307257362248 517.1041038099601L1680.7313737393158 517.1041038099601L1683.2476073947425 532.8779126391398L1684.2216333258755 532.8779126391398Q1688.1177370504072 525.464493052184 1692.6090788439642 521.6766144311116Q1697.0733643616566 517.8887358100394 1702.3493381552933 516.5088657409344Q1707.5982556730648 515.1560519476943 1713.6318051909154 515.1560519476943L1713.6318051909154 515.1560519476943Q1719.8818049156848 515.1560519476943 1725.4283414679692 516.9147098789065Q1730.9748780202538 518.6463115342538 1735.2768258827575 522.461246431191Q1739.5517174693962 526.2491250522633 1741.878557193769 532.8779126391398L1741.878557193769 532.8779126391398L1743.447821193928 532.8779126391398Q1747.3439249184592 525.464493052184 1752.1058294706645 521.6766144311116Q1756.8947902987345 517.8887358100394 1762.4413268510189 516.5088657409344Q1767.9878634033034 515.1560519476943 1774.0214129211543 515.1560519476943L1774.0214129211543 515.1560519476943Q1789.0376460261193 515.1560519476943 1797.3980352683434 524.2199043624031Q1805.7854807864321 533.256700501247 1805.7854807864321 553.3324571929304L1805.7854807864321 553.3324571929304L1805.7854807864321 599.3010698872295Q1805.7854807864321 605.3346194050803 1807.733532648698 608.3649223019381Q1809.6815845109638 611.395225198796 1813.090675269929 612.3692511299289Q1816.4997660288939 613.3432770610618 1820.7746576155325 613.3432770610618L1820.7746576155325 613.3432770610618L1821.3698956845585 613.3432770610618L1821.3698956845585 621.5142723722322L1787.4683820259609 621.5142723722322L1787.4683820259609 554.3064831240632Q1787.4683820259609 541.6441460193357 1782.8958714048094 534.636570570352Q1778.3233607836578 527.6289951213682 1767.0138374721703 527.6289951213682L1767.0138374721703 527.6289951213682Q1759.0322360920538 527.6289951213682 1754.2703315398487 531.6062676734941Q1749.4813707117785 535.6105965014849 1747.4521500219182 542.2393840883615Q1745.3958730561933 548.8411153993732 1745.3958730561933 556.6333228484361L1745.3958730561933 556.6333228484361L1745.3958730561933 599.3010698872295Q1745.3958730561933 605.3346194050803 1747.3439249184592 608.3649223019381Q1749.291976780725 611.395225198796 1752.7010675396903 612.3692511299289Q1756.1101582986553 613.3432770610618 1760.385049885294 613.3432770610618L1760.385049885294 613.3432770610618L1760.9802879543195 613.3432770610618L1760.9802879543195 621.5142723722322L1727.0787742957225 621.5142723722322L1727.0787742957225 554.3064831240632Q1727.0787742957225 541.6441460193357 1722.5062636745708 534.636570570352Q1717.9337530534192 527.6289951213682 1706.624229741932 527.6289951213682L1706.624229741932 527.6289951213682Q1698.263840499708 527.6289951213682 1693.2854857405844 532.0121118114662Q1688.3071309814607 536.3952285015641 1686.1696851881413 543.5921978816016Q1684.0322393948218 550.789167261639 1684.0322393948218 559.1766127797276L1684.0322393948218 559.1766127797276L1684.0322393948218 600.2750958183624Q1684.0322393948218 605.929857474106 1686.2779102916004 608.7437101640455Q1688.5235811883792 611.5846191298497 1692.122065878398 612.4504199575233Q1695.7205505684165 613.3432770610618 1699.9954421550553 613.3432770610618L1699.9954421550553 613.3432770610618L1700.5906802240809 613.3432770610618L1700.5906802240809 621.5142723722322ZM1886.629633070461 621.5142723722322L1831.2995489269408 621.5142723722322L1831.2995489269408 613.3432770610618L1833.8428388582322 613.3432770610618Q1838.1177304448709 613.3432770610618 1841.7162151348896 612.4504199575233Q1845.341756100773 611.5846191298497 1847.5603707216867 608.7437101640455Q1849.8060416184655 605.929857474106 1849.8060416184655 600.2750958183624L1849.8060416184655 600.2750958183624L1849.8060416184655 538.5326742948835Q1849.8060416184655 532.6885187080861 1847.5603707216867 529.847609742282Q1845.341756100773 527.0337570523425 1841.7162151348896 526.1679562246688Q1838.1177304448709 525.2750991211303 1833.8428388582322 525.2750991211303L1833.8428388582322 525.2750991211303L1833.2476007892067 525.2750991211303L1833.2476007892067 517.1041038099601L1868.1231403789368 517.1041038099601L1868.1231403789368 599.3010698872295Q1868.1231403789368 605.3346194050803 1870.2605861722561 608.3649223019381Q1872.3980319655755 611.395225198796 1876.1047417590532 612.3692511299289Q1879.811451552531 613.3432770610618 1884.0863431391697 613.3432770610618L1884.0863431391697 613.3432770610618L1886.629633070461 613.3432770610618L1886.629633070461 621.5142723722322ZM1858.193487136554 497.62358518730247L1858.193487136554 497.62358518730247Q1853.5127514119433 497.62358518730247 1850.293054584032 494.8909013249574Q1847.0733577561207 492.15821746261236 1847.0733577561207 485.52942987573584L1847.0733577561207 485.52942987573584Q1847.0733577561207 478.71124835780563 1850.293054584032 476.0867895989198Q1853.5127514119433 473.462330840034 1858.193487136554 473.462330840034L1858.193487136554 473.462330840034Q1862.6577726542466 473.462330840034 1865.985694585617 476.0867895989198Q1869.2865602411232 478.71124835780563 1869.2865602411232 485.52942987573584L1869.2865602411232 485.52942987573584Q1869.2865602411232 492.15821746261236 1865.985694585617 494.8909013249574Q1862.6577726542466 497.62358518730247 1858.193487136554 497.62358518730247ZM1935.9261676961312 623.4623242344978L1935.9261676961312 623.4623242344978Q1921.0993285222196 623.4623242344978 1914.3893721077486 616.7523678200268Q1907.6794156932776 610.0153551296912 1907.6794156932776 593.2675203693786L1907.6794156932776 593.2675203693786L1907.6794156932776 528.197176914529L1892.852576519366 528.197176914529L1892.852576519366 520.4049694654659Q1896.3698923817904 520.4049694654659 1900.644783968429 518.9439305687666Q1904.9467318309328 517.4828916720674 1908.058203555385 514.1820260165614L1908.058203555385 514.1820260165614Q1911.3590692108908 510.66471015413714 1913.5235712800747 505.6051865674191Q1915.661017073394 500.5456629807011 1917.0138308666344 493.1322433937452L1917.0138308666344 493.1322433937452L1925.9694581778838 493.1322433937452L1925.9694581778838 517.1041038099601L1951.5105825942576 517.1041038099601L1951.5105825942576 528.197176914529L1925.9694581778838 528.197176914529L1925.9694581778838 593.8627584384042Q1925.9694581778838 603.7924116807867 1930.082012109334 608.4731474053974Q1934.1675097649193 613.1268268541435 1940.7962973517954 613.1268268541435L1940.7962973517954 613.1268268541435Q1944.286556938355 613.1268268541435 1947.2086347317538 612.7480389920363Q1950.1307125251526 612.3692511299289 1953.2421842496049 611.7740130609034L1953.2421842496049 611.7740130609034L1953.2421842496049 620.3508525100456Q1950.7259505941781 621.5142723722322 1945.66642700746 622.4882983033651Q1940.5798471448772 623.4623242344978 1935.9261676961312 623.4623242344978ZM2013.6317919798432 621.5142723722322L1961.250841905586 621.5142723722322L1961.250841905586 613.3432770610618L1962.7930496298798 613.3432770610618Q1967.284391423437 613.3432770610618 1970.8828761134557 612.3692511299289Q1974.4813608034744 611.395225198796 1976.6188065967938 608.3649223019381Q1978.7833086659782 605.3346194050803 1978.7833086659782 599.3010698872295L1978.7833086659782 599.3010698872295L1978.7833086659782 494.8909013249574Q1978.7833086659782 489.0467457381601 1976.5376377691994 486.23289304822066Q1974.291966872421 483.3919840824164 1970.6934821824022 482.52618325474276Q1967.0949974923835 481.63332615120424 1962.7930496298798 481.63332615120424L1962.7930496298798 481.63332615120424L1961.250841905586 481.63332615120424L1961.250841905586 473.462330840034L1997.0733511505844 473.462330840034L1997.0733511505844 516.3194718098807Q1997.0733511505844 519.836787672305 1996.8839572195309 523.6246662933775Q1996.694563288477 527.4125449144498 1996.5051693574235 530.1452287767947Q1996.31577542637 532.8779126391398 1996.31577542637 532.8779126391398L1996.31577542637 532.8779126391398L1997.289801357503 532.8779126391398Q2000.2118791509013 527.0337570523425 2004.3785456340809 523.0294282243517Q2008.5722683931256 519.0521556722258 2013.9294110143562 517.1041038099601Q2019.2865536355869 515.1560519476943 2025.9153412224634 515.1560519476943L2025.9153412224634 515.1560519476943Q2042.6631759827762 515.1560519476943 2051.537634466432 524.2199043624031Q2060.3850366742217 533.256700501247 2060.3850366742217 553.3324571929304L2060.3850366742217 553.3324571929304L2060.3850366742217 599.3010698872295Q2060.3850366742217 605.3346194050803 2062.3330885364876 608.3649223019381Q2064.2811403987535 611.395225198796 2067.6902311577187 612.3692511299289Q2071.099321916683 613.3432770610618 2075.401269779187 613.3432770610618L2075.401269779187 613.3432770610618L2075.9694515723477 613.3432770610618L2075.9694515723477 621.5142723722322L2042.0949941896154 621.5142723722322L2042.0949941896154 554.3064831240632Q2042.0949941896154 541.6441460193357 2037.3060333615456 534.636570570352Q2032.54412880934 527.6289951213682 2020.6664237046919 527.6289951213682L2020.6664237046919 527.6289951213682Q2012.6577660487108 527.6289951213682 2007.4088485309392 531.5250988458997Q2002.1599310131671 535.4212025704312 1999.6166410818757 542.5099468470094Q1997.0733511505844 549.6257473994524 1997.0733511505844 559.1766127797276L1997.0733511505844 559.1766127797276L1997.0733511505844 600.2750958183624Q1997.0733511505844 605.929857474106 1999.3190220473628 608.7437101640455Q2001.5646929441416 611.5846191298497 2005.1631776341603 612.4504199575233Q2008.761662324179 613.3432770610618 2013.0636101866828 613.3432770610618L2013.0636101866828 613.3432770610618L2013.6317919798432 613.3432770610618L2013.6317919798432 621.5142723722322ZM2105.7854675753597 622.8670861654723L2105.7854675753597 622.8670861654723Q2100.725943988642 622.8670861654723 2097.127459298623 619.9450083720735Q2093.5019183327395 617.022930578675 2093.5019183327395 609.636567267584L2093.5019183327395 609.636567267584Q2093.5019183327395 602.0337537495745 2097.127459298623 599.219901059635Q2100.725943988642 596.3789920938309 2105.7854675753597 596.3789920938309L2105.7854675753597 596.3789920938309Q2110.8449911620783 596.3789920938309 2114.4434758520965 599.219901059635Q2118.06901681798 602.0337537495745 2118.06901681798 609.636567267584L2118.06901681798 609.636567267584Q2118.06901681798 617.022930578675 2114.4434758520965 619.9450083720735Q2110.8449911620783 622.8670861654723 2105.7854675753597 622.8670861654723ZM2185.276806066149 623.4623242344978L2185.276806066149 623.4623242344978Q2172.398018754503 623.4623242344978 2162.3871966845263 617.9969565098079Q2152.3493183386845 612.5586450609826 2146.5863315794822 600.7621087839289Q2140.8504010961433 588.9926287827398 2140.8504010961433 569.8908980221893L2140.8504010961433 569.8908980221893Q2140.8504010961433 549.0575656062915 2146.5863315794822 537.0716353981842Q2152.3493183386845 525.0857051900767 2162.170746477608 520.1073504309531Q2172.019230892396 515.1560519476943 2184.3027801350163 515.1560519476943L2184.3027801350163 515.1560519476943Q2192.4737754461867 515.1560519476943 2200.265982895249 517.2934977410137Q2208.0581903443126 519.4309435343331 2213.1177139310303 523.814060224431Q2218.177237517749 528.197176914529 2218.177237517749 535.0153584324592L2218.177237517749 535.0153584324592Q2218.177237517749 539.5067002260164 2216.229185655483 542.2393840883615Q2214.281133793217 544.9450116748417 2210.493255172145 546.135487812893Q2206.7053765510727 547.2989076750794 2200.861220964275 547.2989076750794L2200.861220964275 547.2989076750794Q2200.861220964275 541.0489079503102 2199.4001820675758 535.9893843635921Q2197.9391431708764 530.9298607768741 2194.4218273084525 527.8995578800161Q2190.9045114460278 524.8963112590232 2184.3027801350163 524.8963112590232L2184.3027801350163 524.8963112590232Q2176.8893605480607 524.8963112590232 2171.3428239957757 528.7924149835546Q2165.7962874434916 532.6885187080861 2162.7659845466333 542.428778019415Q2159.735681649776 552.1690373307438 2159.735681649776 569.7015040911358L2159.735681649776 569.7015040911358Q2159.735681649776 583.5272610580498 2162.7659845466333 592.6722823003529Q2165.7962874434916 601.8443598185208 2172.20862482345 606.3086453362132Q2178.6480184792727 610.7999871297704 2189.172909790681 610.7999871297704L2189.172909790681 610.7999871297704Q2195.2064593085315 610.7999871297704 2200.265982895249 609.0413291985583Q2205.3255064819678 607.2826712673461 2209.140441378904 604.1711995428939Q2212.9283199999772 601.0597278184416 2215.065765793296 597.1636240939101L2215.065765793296 597.1636240939101Q2216.635029793455 598.3270439560965 2217.5008306211284 600.193926990768Q2218.393687724667 602.0337537495745 2218.393687724667 604.7664376119196L2218.393687724667 604.7664376119196Q2218.393687724667 609.230723129612 2214.686977931189 613.5326709921155Q2210.9802681377114 617.8075625787542 2203.6750736542144 620.6484715445586Q2196.3698791707184 623.4623242344978 2185.276806066149 623.4623242344978ZM2281.8947671793576 623.4623242344978L2281.8947671793576 623.4623242344978Q2260.844984556542 623.4623242344978 2248.77788552084 610.0153551296912Q2236.6837302092736 596.5683860248844 2236.6837302092736 569.10626602211L2236.6837302092736 569.10626602211Q2236.6837302092736 541.8335399503894 2248.2908725552734 528.4947959490419Q2259.870958625409 515.1560519476943 2282.4629489725185 515.1560519476943L2282.4629489725185 515.1560519476943Q2303.512731595335 515.1560519476943 2315.579830631037 528.4947959490419Q2327.6739859426034 541.8335399503894 2327.6739859426034 569.10626602211L2327.6739859426034 569.10626602211Q2327.6739859426034 596.5683860248844 2316.0668435966036 610.0153551296912Q2304.486757526468 623.4623242344978 2281.8947671793576 623.4623242344978ZM2282.2735550414654 613.3432770610618L2282.2735550414654 613.3432770610618Q2292.013814352794 613.3432770610618 2297.8579699395914 608.3649223019381Q2303.702125526389 603.3865675428146 2306.24541545768 593.4569143004321Q2308.7616491131066 583.5272610580498 2308.7616491131066 569.10626602211L2308.7616491131066 569.10626602211Q2308.7616491131066 547.2989076750794 2302.728099595256 536.3952285015641Q2296.6945500774045 525.464493052184 2282.0841611104115 525.464493052184L2282.0841611104115 525.464493052184Q2267.4737721434185 525.464493052184 2261.5213914531623 536.3952285015641Q2255.5960670387703 547.2989076750794 2255.5960670387703 569.10626602211L2255.5960670387703 569.10626602211Q2255.5960670387703 590.9406806450056 2261.629616556622 602.1419788530336Q2267.6631660744715 613.3432770610618 2282.2735550414654 613.3432770610618ZM2396.2345889840126 621.5142723722322L2343.826582633891 621.5142723722322L2343.826582633891 613.3432770610618L2346.369872565182 613.3432770610618Q2350.861214358739 613.3432770610618 2354.1620800142455 612.3692511299289Q2357.462945669751 611.395225198796 2359.410997532017 608.3649223019381Q2361.359049394282 605.3346194050803 2361.359049394282 599.3010698872295L2361.359049394282 599.3010698872295L2361.359049394282 538.5326742948835Q2361.359049394282 532.6885187080861 2359.410997532017 529.847609742282Q2357.462945669751 527.0337570523425 2354.053854910786 526.1679562246688Q2350.6447641518207 525.2750991211303 2346.369872565182 525.2750991211303L2346.369872565182 525.2750991211303L2345.774634496156 525.2750991211303L2345.774634496156 517.1041038099601L2376.375282499248 517.1041038099601L2378.891516154674 532.8779126391398L2379.8655420858067 532.8779126391398Q2383.7616458103385 525.464493052184 2388.252987603896 521.6766144311116Q2392.744329397453 517.8887358100394 2397.9932469152245 516.5088657409344Q2403.242164432996 515.1560519476943 2409.302770226712 515.1560519476943L2409.302770226712 515.1560519476943Q2415.5257136756163 515.1560519476943 2421.0722502279013 516.9147098789065Q2426.6187867801855 518.6463115342538 2430.9207346426892 522.461246431191Q2435.195626229328 526.2491250522633 2437.549522229566 532.8779126391398L2437.549522229566 532.8779126391398L2439.0917299538596 532.8779126391398Q2442.9878336783904 525.464493052184 2447.7767945064606 521.6766144311116Q2452.5386990586658 517.8887358100394 2458.085235610951 516.5088657409344Q2463.631772163235 515.1560519476943 2469.6923779569506 515.1560519476943L2469.6923779569506 515.1560519476943Q2484.6815547860515 515.1560519476943 2493.06900030414 524.2199043624031Q2501.4293895463643 533.256700501247 2501.4293895463643 553.3324571929304L2501.4293895463643 553.3324571929304L2501.4293895463643 599.3010698872295Q2501.4293895463643 605.3346194050803 2503.3774414086292 608.3649223019381Q2505.325493270896 611.395225198796 2508.7345840298603 612.3692511299289Q2512.1436747888256 613.3432770610618 2516.4456226513294 613.3432770610618L2516.4456226513294 613.3432770610618L2517.0138044444902 613.3432770610618L2517.0138044444902 621.5142723722322L2483.1122907858926 621.5142723722322L2483.1122907858926 554.3064831240632Q2483.1122907858926 541.6441460193357 2478.5397801647414 534.636570570352Q2473.9672695435893 527.6289951213682 2462.657746232102 527.6289951213682L2462.657746232102 527.6289951213682Q2454.6761448519856 527.6289951213682 2449.9142402997804 531.6062676734941Q2445.12527947171 535.6105965014849 2443.09605878185 542.2393840883615Q2441.0397818161255 548.8411153993732 2441.0397818161255 556.6333228484361L2441.0397818161255 556.6333228484361L2441.0397818161255 599.3010698872295Q2441.0397818161255 605.3346194050803 2442.9878336783904 608.3649223019381Q2444.935885540657 611.395225198796 2448.3449762996215 612.3692511299289Q2451.7540670585868 613.3432770610618 2456.0560149210905 613.3432770610618L2456.0560149210905 613.3432770610618L2456.6241967142514 613.3432770610618L2456.6241967142514 621.5142723722322L2422.7226830556538 621.5142723722322L2422.7226830556538 554.3064831240632Q2422.7226830556538 541.6441460193357 2418.1501724345026 534.636570570352Q2413.5776618133505 527.6289951213682 2402.268138501863 527.6289951213682L2402.268138501863 527.6289951213682Q2393.90774925964 527.6289951213682 2388.9293945005156 532.0121118114662Q2383.9780960172566 536.3952285015641 2381.8135939480726 543.5921978816016Q2379.6761481547537 550.789167261639 2379.6761481547537 559.1766127797276L2379.6761481547537 559.1766127797276L2379.6761481547537 600.2750958183624Q2379.6761481547537 605.929857474106 2381.921819051532 608.7437101640455Q2384.1674899483105 611.5846191298497 2387.7659746383297 612.4504199575233Q2391.364459328348 613.3432770610618 2395.6664071908517 613.3432770610618L2395.6664071908517 613.3432770610618L2396.2345889840126 613.3432770610618L2396.2345889840126 621.5142723722322Z " fill="#f43f5e" transform="matrix(0.34763416392851954,0,0,0.3476341639285196,0,109.33576492689201)"/></g></svg>